<mxfile host="app.diagrams.net" modified="2023-12-28T22:22:58.173Z" agent="Mozilla/5.0 (Windows NT 10.0; Win64; x64) AppleWebKit/537.36 (KHTML, like Gecko) Chrome/120.0.0.0 Safari/537.36" etag="fS7hSbQXa8NHVy1KTwF2" version="22.1.13" type="github">
  <diagram name="Page-1" id="mnIJfY60bvJNDvsKuQh9">
    <mxGraphModel dx="2819" dy="1146" grid="1" gridSize="10" guides="1" tooltips="1" connect="1" arrows="1" fold="1" page="1" pageScale="1" pageWidth="1169" pageHeight="827" math="0" shadow="0">
      <root>
        <mxCell id="0" />
        <mxCell id="1" parent="0" />
        <mxCell id="2eXZJzVbI_ONPsShpP8c-1" value="Site" style="rounded=0;whiteSpace=wrap;html=1;align=right;verticalAlign=bottom;" vertex="1" parent="1">
          <mxGeometry x="525" y="190" width="355" height="230" as="geometry" />
        </mxCell>
        <mxCell id="C1h8iQs_TRBgUqANPpUf-13" value="" style="rounded=0;whiteSpace=wrap;html=1;fillColor=none;" parent="1" vertex="1">
          <mxGeometry x="110" y="390" width="140" height="330" as="geometry" />
        </mxCell>
        <mxCell id="jiuy7B6aaROlVbYT8yXl-59" style="rounded=0;orthogonalLoop=1;jettySize=auto;html=1;endArrow=classic;endFill=1;" parent="1" source="jiuy7B6aaROlVbYT8yXl-14" target="jiuy7B6aaROlVbYT8yXl-16" edge="1">
          <mxGeometry relative="1" as="geometry">
            <mxPoint x="778" y="300" as="sourcePoint" />
            <mxPoint x="680" y="343" as="targetPoint" />
          </mxGeometry>
        </mxCell>
        <mxCell id="jiuy7B6aaROlVbYT8yXl-41" value="TangleIceLayer" style="rounded=1;whiteSpace=wrap;html=1;" parent="1" vertex="1">
          <mxGeometry x="320" y="640" width="120" height="50" as="geometry" />
        </mxCell>
        <mxCell id="jiuy7B6aaROlVbYT8yXl-40" value="OsLayer" style="rounded=1;whiteSpace=wrap;html=1;fontStyle=0" parent="1" vertex="1">
          <mxGeometry x="940" y="570" width="120" height="40" as="geometry" />
        </mxCell>
        <mxCell id="jiuy7B6aaROlVbYT8yXl-1" value="&lt;br&gt;Node&lt;br&gt;&amp;nbsp;" style="rounded=0;whiteSpace=wrap;html=1;fillColor=#dae8fc;strokeColor=#6c8ebf;" parent="1" vertex="1">
          <mxGeometry x="550" y="320" width="120" height="70" as="geometry" />
        </mxCell>
        <mxCell id="jiuy7B6aaROlVbYT8yXl-2" value="Layer" style="rounded=1;whiteSpace=wrap;html=1;" parent="1" vertex="1">
          <mxGeometry x="560" y="470" width="120" height="40" as="geometry" />
        </mxCell>
        <mxCell id="jiuy7B6aaROlVbYT8yXl-3" value="@Document&lt;br&gt;&lt;i&gt;collection in mongodb&lt;br&gt;&amp;nbsp;&lt;br&gt;&lt;/i&gt;" style="rounded=0;whiteSpace=wrap;html=1;fillColor=#dae8fc;strokeColor=#6c8ebf;" parent="1" vertex="1">
          <mxGeometry x="990" y="10" width="170" height="70" as="geometry" />
        </mxCell>
        <mxCell id="jiuy7B6aaROlVbYT8yXl-4" value="Child&lt;br&gt;&lt;i&gt;part of a document, &lt;br&gt;not a collection itself&lt;/i&gt;" style="rounded=1;whiteSpace=wrap;html=1;" parent="1" vertex="1">
          <mxGeometry x="1005" y="110" width="140" height="50" as="geometry" />
        </mxCell>
        <mxCell id="jiuy7B6aaROlVbYT8yXl-8" style="edgeStyle=orthogonalEdgeStyle;rounded=0;orthogonalLoop=1;jettySize=auto;html=1;exitX=0.5;exitY=0;exitDx=0;exitDy=0;entryX=0.5;entryY=1;entryDx=0;entryDy=0;endArrow=block;endFill=0;" parent="1" source="jiuy7B6aaROlVbYT8yXl-5" target="jiuy7B6aaROlVbYT8yXl-2" edge="1">
          <mxGeometry relative="1" as="geometry" />
        </mxCell>
        <mxCell id="jiuy7B6aaROlVbYT8yXl-5" value="IceLayer" style="rounded=1;whiteSpace=wrap;html=1;" parent="1" vertex="1">
          <mxGeometry x="410" y="550" width="120" height="50" as="geometry" />
        </mxCell>
        <mxCell id="jiuy7B6aaROlVbYT8yXl-10" style="edgeStyle=orthogonalEdgeStyle;rounded=0;orthogonalLoop=1;jettySize=auto;html=1;exitX=0.5;exitY=0;exitDx=0;exitDy=0;endArrow=block;endFill=0;entryX=0.5;entryY=1;entryDx=0;entryDy=0;" parent="1" source="jiuy7B6aaROlVbYT8yXl-9" target="jiuy7B6aaROlVbYT8yXl-2" edge="1">
          <mxGeometry relative="1" as="geometry">
            <mxPoint x="540" y="500" as="targetPoint" />
          </mxGeometry>
        </mxCell>
        <mxCell id="jiuy7B6aaROlVbYT8yXl-9" value="StatusLightLayer" style="rounded=1;whiteSpace=wrap;html=1;" parent="1" vertex="1">
          <mxGeometry x="669.4300000000001" y="550" width="120" height="50" as="geometry" />
        </mxCell>
        <mxCell id="B6_g9tHJlzhegWJG6Xg5-1" style="edgeStyle=orthogonalEdgeStyle;rounded=0;orthogonalLoop=1;jettySize=auto;html=1;exitX=0;exitY=0.5;exitDx=0;exitDy=0;entryX=1;entryY=0.5;entryDx=0;entryDy=0;" parent="1" source="jiuy7B6aaROlVbYT8yXl-14" target="jiuy7B6aaROlVbYT8yXl-1" edge="1">
          <mxGeometry relative="1" as="geometry" />
        </mxCell>
        <mxCell id="B6_g9tHJlzhegWJG6Xg5-3" value="from" style="edgeLabel;html=1;align=center;verticalAlign=middle;resizable=0;points=[];" parent="B6_g9tHJlzhegWJG6Xg5-1" vertex="1" connectable="0">
          <mxGeometry x="0.2032" y="1" relative="1" as="geometry">
            <mxPoint x="11" y="-1" as="offset" />
          </mxGeometry>
        </mxCell>
        <mxCell id="B6_g9tHJlzhegWJG6Xg5-2" style="edgeStyle=orthogonalEdgeStyle;rounded=0;orthogonalLoop=1;jettySize=auto;html=1;exitX=0;exitY=0.75;exitDx=0;exitDy=0;entryX=1;entryY=0.75;entryDx=0;entryDy=0;" parent="1" source="jiuy7B6aaROlVbYT8yXl-14" target="jiuy7B6aaROlVbYT8yXl-1" edge="1">
          <mxGeometry relative="1" as="geometry" />
        </mxCell>
        <mxCell id="B6_g9tHJlzhegWJG6Xg5-4" value="to" style="edgeLabel;html=1;align=center;verticalAlign=middle;resizable=0;points=[];" parent="B6_g9tHJlzhegWJG6Xg5-2" vertex="1" connectable="0">
          <mxGeometry x="-0.1619" y="2" relative="1" as="geometry">
            <mxPoint x="-1" y="-3" as="offset" />
          </mxGeometry>
        </mxCell>
        <mxCell id="jiuy7B6aaROlVbYT8yXl-14" value="&lt;br&gt;Connection&lt;br&gt;&amp;nbsp;" style="rounded=0;whiteSpace=wrap;html=1;fillColor=#dae8fc;strokeColor=#6c8ebf;" parent="1" vertex="1">
          <mxGeometry x="730" y="320" width="120" height="70" as="geometry" />
        </mxCell>
        <mxCell id="jiuy7B6aaROlVbYT8yXl-16" value="SiteProperties&lt;br&gt;&amp;nbsp;" style="rounded=0;whiteSpace=wrap;html=1;fillColor=#dae8fc;strokeColor=#6c8ebf;" parent="1" vertex="1">
          <mxGeometry x="550" y="210" width="120" height="70" as="geometry" />
        </mxCell>
        <mxCell id="jiuy7B6aaROlVbYT8yXl-23" value="" style="rounded=0;orthogonalLoop=1;jettySize=auto;html=1;" parent="1" source="jiuy7B6aaROlVbYT8yXl-22" target="jiuy7B6aaROlVbYT8yXl-21" edge="1">
          <mxGeometry relative="1" as="geometry" />
        </mxCell>
        <mxCell id="jiuy7B6aaROlVbYT8yXl-37" value="" style="rounded=0;orthogonalLoop=1;jettySize=auto;html=1;" parent="1" source="jiuy7B6aaROlVbYT8yXl-22" target="jiuy7B6aaROlVbYT8yXl-36" edge="1">
          <mxGeometry relative="1" as="geometry" />
        </mxCell>
        <mxCell id="jiuy7B6aaROlVbYT8yXl-22" value="RunLink" style="rounded=0;whiteSpace=wrap;html=1;fillColor=#dae8fc;strokeColor=#6c8ebf;" parent="1" vertex="1">
          <mxGeometry x="200" y="20" width="120" height="70" as="geometry" />
        </mxCell>
        <mxCell id="jiuy7B6aaROlVbYT8yXl-75" style="rounded=0;orthogonalLoop=1;jettySize=auto;html=1;" parent="1" source="jiuy7B6aaROlVbYT8yXl-26" target="jiuy7B6aaROlVbYT8yXl-21" edge="1">
          <mxGeometry relative="1" as="geometry" />
        </mxCell>
        <mxCell id="jiuy7B6aaROlVbYT8yXl-76" style="rounded=0;orthogonalLoop=1;jettySize=auto;html=1;" parent="1" source="jiuy7B6aaROlVbYT8yXl-26" target="jiuy7B6aaROlVbYT8yXl-36" edge="1">
          <mxGeometry relative="1" as="geometry" />
        </mxCell>
        <mxCell id="jiuy7B6aaROlVbYT8yXl-90" style="rounded=0;orthogonalLoop=1;jettySize=auto;html=1;entryX=0.003;entryY=0.404;entryDx=0;entryDy=0;entryPerimeter=0;" parent="1" source="jiuy7B6aaROlVbYT8yXl-26" target="2eXZJzVbI_ONPsShpP8c-1" edge="1">
          <mxGeometry relative="1" as="geometry">
            <mxPoint x="420" y="275" as="targetPoint" />
          </mxGeometry>
        </mxCell>
        <mxCell id="jiuy7B6aaROlVbYT8yXl-26" value="HackerState" style="rounded=0;whiteSpace=wrap;html=1;fillColor=#dae8fc;strokeColor=#6c8ebf;" parent="1" vertex="1">
          <mxGeometry x="200" y="250" width="120" height="70" as="geometry" />
        </mxCell>
        <mxCell id="jiuy7B6aaROlVbYT8yXl-27" value="SiteEditorState" style="rounded=0;whiteSpace=wrap;html=1;fillColor=#dae8fc;strokeColor=#6c8ebf;" parent="1" vertex="1">
          <mxGeometry x="730" y="210" width="120" height="70" as="geometry" />
        </mxCell>
        <mxCell id="jiuy7B6aaROlVbYT8yXl-42" style="rounded=0;orthogonalLoop=1;jettySize=auto;html=1;exitX=1;exitY=0.75;exitDx=0;exitDy=0;" parent="1" source="C1h8iQs_TRBgUqANPpUf-13" target="jiuy7B6aaROlVbYT8yXl-38" edge="1">
          <mxGeometry relative="1" as="geometry">
            <mxPoint x="240" y="410" as="targetPoint" />
            <mxPoint x="340" y="540" as="sourcePoint" />
          </mxGeometry>
        </mxCell>
        <mxCell id="jiuy7B6aaROlVbYT8yXl-64" value="layerId" style="edgeLabel;html=1;align=center;verticalAlign=middle;resizable=0;points=[];" parent="jiuy7B6aaROlVbYT8yXl-42" vertex="1" connectable="0">
          <mxGeometry x="0.1412" relative="1" as="geometry">
            <mxPoint y="-7" as="offset" />
          </mxGeometry>
        </mxCell>
        <mxCell id="yUMayUT2DUETe77GGP__-6" value="implicit&lt;br&gt;link&lt;br&gt;via&lt;br&gt;layerId" style="rounded=0;orthogonalLoop=1;jettySize=auto;html=1;entryX=0;entryY=0.5;entryDx=0;entryDy=0;dashed=1;exitX=1;exitY=0.25;exitDx=0;exitDy=0;" parent="1" source="C1h8iQs_TRBgUqANPpUf-13" target="jiuy7B6aaROlVbYT8yXl-1" edge="1">
          <mxGeometry relative="1" as="geometry">
            <mxPoint x="330" y="470" as="sourcePoint" />
          </mxGeometry>
        </mxCell>
        <mxCell id="jiuy7B6aaROlVbYT8yXl-28" value="&lt;br&gt;TangleIceStatus&lt;br&gt;&amp;nbsp;" style="rounded=0;whiteSpace=wrap;html=1;fillColor=#dae8fc;strokeColor=#6c8ebf;" parent="1" vertex="1">
          <mxGeometry x="120" y="640" width="120" height="70" as="geometry" />
        </mxCell>
        <mxCell id="jiuy7B6aaROlVbYT8yXl-30" value="&lt;br&gt;WordSearchIceStatus&lt;br&gt;&amp;nbsp;" style="rounded=0;whiteSpace=wrap;html=1;fillColor=#dae8fc;strokeColor=#6c8ebf;" parent="1" vertex="1">
          <mxGeometry x="120" y="560" width="120" height="70" as="geometry" />
        </mxCell>
        <mxCell id="jiuy7B6aaROlVbYT8yXl-31" value="&lt;br&gt;NetwalkIceStatus&lt;br&gt;&amp;nbsp;" style="rounded=0;whiteSpace=wrap;html=1;fillColor=#dae8fc;strokeColor=#6c8ebf;" parent="1" vertex="1">
          <mxGeometry x="120" y="400" width="120" height="70" as="geometry" />
        </mxCell>
        <mxCell id="jiuy7B6aaROlVbYT8yXl-32" value="&lt;br&gt;TarIceStatus&lt;br&gt;&amp;nbsp;" style="rounded=0;whiteSpace=wrap;html=1;fillColor=#dae8fc;strokeColor=#6c8ebf;" parent="1" vertex="1">
          <mxGeometry x="120" y="480" width="120" height="70" as="geometry" />
        </mxCell>
        <mxCell id="jiuy7B6aaROlVbYT8yXl-38" value="TangleIceLayer&lt;br&gt;&amp;nbsp;" style="rounded=1;whiteSpace=wrap;html=1;" parent="1" vertex="1">
          <mxGeometry x="310" y="630" width="120" height="50" as="geometry" />
        </mxCell>
        <mxCell id="jiuy7B6aaROlVbYT8yXl-39" style="rounded=0;orthogonalLoop=1;jettySize=auto;html=1;exitX=0.5;exitY=0;exitDx=0;exitDy=0;entryX=0.25;entryY=1;entryDx=0;entryDy=0;endArrow=block;endFill=0;edgeStyle=orthogonalEdgeStyle;" parent="1" source="jiuy7B6aaROlVbYT8yXl-38" target="jiuy7B6aaROlVbYT8yXl-5" edge="1">
          <mxGeometry relative="1" as="geometry">
            <mxPoint x="480" y="570" as="sourcePoint" />
            <mxPoint x="550" y="530" as="targetPoint" />
            <Array as="points">
              <mxPoint x="370" y="620" />
              <mxPoint x="440" y="620" />
            </Array>
          </mxGeometry>
        </mxCell>
        <mxCell id="N_-d8kACcy34HXy9NwKo-2" style="rounded=0;orthogonalLoop=1;jettySize=auto;html=1;exitX=0.5;exitY=1;exitDx=0;exitDy=0;entryX=0.5;entryY=0;entryDx=0;entryDy=0;dashed=1;dashPattern=12 12;" parent="1" source="jiuy7B6aaROlVbYT8yXl-45" target="N_-d8kACcy34HXy9NwKo-1" edge="1">
          <mxGeometry relative="1" as="geometry" />
        </mxCell>
        <mxCell id="N_-d8kACcy34HXy9NwKo-29" value="Creates during run" style="edgeLabel;html=1;align=center;verticalAlign=middle;resizable=0;points=[];" parent="N_-d8kACcy34HXy9NwKo-2" vertex="1" connectable="0">
          <mxGeometry x="0.1306" y="2" relative="1" as="geometry">
            <mxPoint as="offset" />
          </mxGeometry>
        </mxCell>
        <mxCell id="jiuy7B6aaROlVbYT8yXl-45" value="TripWireLayer" style="rounded=1;whiteSpace=wrap;html=1;" parent="1" vertex="1">
          <mxGeometry x="800" y="550" width="120" height="50" as="geometry" />
        </mxCell>
        <mxCell id="jiuy7B6aaROlVbYT8yXl-46" style="edgeStyle=orthogonalEdgeStyle;rounded=0;orthogonalLoop=1;jettySize=auto;html=1;exitX=0.5;exitY=0;exitDx=0;exitDy=0;endArrow=block;endFill=0;entryX=0.5;entryY=1;entryDx=0;entryDy=0;" parent="1" source="jiuy7B6aaROlVbYT8yXl-45" target="jiuy7B6aaROlVbYT8yXl-2" edge="1">
          <mxGeometry relative="1" as="geometry">
            <mxPoint x="550" y="510" as="targetPoint" />
            <mxPoint x="610" y="550" as="sourcePoint" />
          </mxGeometry>
        </mxCell>
        <mxCell id="jiuy7B6aaROlVbYT8yXl-51" value="primary key" style="rounded=0;whiteSpace=wrap;html=1;fillColor=#d5e8d4;strokeColor=#82b366;" parent="1" vertex="1">
          <mxGeometry x="990" y="60" width="80" height="20" as="geometry" />
        </mxCell>
        <mxCell id="jiuy7B6aaROlVbYT8yXl-52" value="siteId" style="rounded=0;whiteSpace=wrap;html=1;fillColor=#d5e8d4;strokeColor=#82b366;" parent="1" vertex="1">
          <mxGeometry x="580" y="260" width="60" height="20" as="geometry" />
        </mxCell>
        <mxCell id="jiuy7B6aaROlVbYT8yXl-56" style="rounded=0;orthogonalLoop=1;jettySize=auto;html=1;endArrow=classic;endFill=1;" parent="1" source="jiuy7B6aaROlVbYT8yXl-27" target="jiuy7B6aaROlVbYT8yXl-16" edge="1">
          <mxGeometry relative="1" as="geometry">
            <mxPoint x="620" y="310" as="sourcePoint" />
            <mxPoint x="620" y="350" as="targetPoint" />
          </mxGeometry>
        </mxCell>
        <mxCell id="jiuy7B6aaROlVbYT8yXl-58" style="rounded=0;orthogonalLoop=1;jettySize=auto;html=1;endArrow=classic;endFill=1;" parent="1" source="jiuy7B6aaROlVbYT8yXl-1" target="jiuy7B6aaROlVbYT8yXl-16" edge="1">
          <mxGeometry relative="1" as="geometry">
            <mxPoint x="770" y="290" as="sourcePoint" />
            <mxPoint x="680" y="290" as="targetPoint" />
          </mxGeometry>
        </mxCell>
        <mxCell id="jiuy7B6aaROlVbYT8yXl-63" value="layerId" style="rounded=0;whiteSpace=wrap;html=1;fillColor=#d5e8d4;strokeColor=#82b366;" parent="1" vertex="1">
          <mxGeometry x="350" y="660" width="50" height="20" as="geometry" />
        </mxCell>
        <mxCell id="jiuy7B6aaROlVbYT8yXl-66" value="Layer&lt;br&gt;&amp;nbsp;" style="rounded=1;whiteSpace=wrap;html=1;" parent="1" vertex="1">
          <mxGeometry x="550" y="450" width="120" height="50" as="geometry" />
        </mxCell>
        <mxCell id="jiuy7B6aaROlVbYT8yXl-67" value="OsLayer" style="rounded=1;whiteSpace=wrap;html=1;" parent="1" vertex="1">
          <mxGeometry x="930" y="550" width="120" height="50" as="geometry" />
        </mxCell>
        <mxCell id="jiuy7B6aaROlVbYT8yXl-69" style="edgeStyle=orthogonalEdgeStyle;rounded=0;orthogonalLoop=1;jettySize=auto;html=1;exitX=0.5;exitY=0;exitDx=0;exitDy=0;endArrow=block;endFill=0;entryX=0.5;entryY=1;entryDx=0;entryDy=0;" parent="1" source="jiuy7B6aaROlVbYT8yXl-67" target="jiuy7B6aaROlVbYT8yXl-2" edge="1">
          <mxGeometry relative="1" as="geometry">
            <mxPoint x="560" y="520" as="targetPoint" />
            <mxPoint x="750" y="570" as="sourcePoint" />
          </mxGeometry>
        </mxCell>
        <mxCell id="jiuy7B6aaROlVbYT8yXl-71" value="iceId" style="rounded=0;whiteSpace=wrap;html=1;fillColor=#f5f5f5;strokeColor=#666666;fontColor=#333333;" parent="1" vertex="1">
          <mxGeometry x="160" y="690" width="40" height="20" as="geometry" />
        </mxCell>
        <mxCell id="2eXZJzVbI_ONPsShpP8c-5" style="edgeStyle=orthogonalEdgeStyle;rounded=0;orthogonalLoop=1;jettySize=auto;html=1;exitX=0.5;exitY=1;exitDx=0;exitDy=0;entryX=0.5;entryY=0;entryDx=0;entryDy=0;" edge="1" parent="1" source="jiuy7B6aaROlVbYT8yXl-1" target="jiuy7B6aaROlVbYT8yXl-66">
          <mxGeometry relative="1" as="geometry" />
        </mxCell>
        <mxCell id="jiuy7B6aaROlVbYT8yXl-81" value="nodeId" style="rounded=0;whiteSpace=wrap;html=1;fillColor=#d5e8d4;strokeColor=#82b366;" parent="1" vertex="1">
          <mxGeometry x="550" y="320" width="60" height="20" as="geometry" />
        </mxCell>
        <mxCell id="jiuy7B6aaROlVbYT8yXl-82" value="connectionId" style="rounded=0;whiteSpace=wrap;html=1;fillColor=#d5e8d4;strokeColor=#82b366;" parent="1" vertex="1">
          <mxGeometry x="750" y="370" width="80" height="20" as="geometry" />
        </mxCell>
        <mxCell id="yUMayUT2DUETe77GGP__-1" value="iceId" style="rounded=0;whiteSpace=wrap;html=1;fillColor=#f5f5f5;strokeColor=#666666;fontColor=#333333;" parent="1" vertex="1">
          <mxGeometry x="160" y="610" width="40" height="20" as="geometry" />
        </mxCell>
        <mxCell id="yUMayUT2DUETe77GGP__-4" value="iceId" style="rounded=0;whiteSpace=wrap;html=1;fillColor=#f5f5f5;strokeColor=#666666;fontColor=#333333;" parent="1" vertex="1">
          <mxGeometry x="160" y="530" width="40" height="20" as="geometry" />
        </mxCell>
        <mxCell id="yUMayUT2DUETe77GGP__-5" value="iceId" style="rounded=0;whiteSpace=wrap;html=1;fillColor=#f5f5f5;strokeColor=#666666;fontColor=#333333;" parent="1" vertex="1">
          <mxGeometry x="160" y="450" width="40" height="20" as="geometry" />
        </mxCell>
        <mxCell id="C1h8iQs_TRBgUqANPpUf-4" style="rounded=0;orthogonalLoop=1;jettySize=auto;html=1;entryX=0.5;entryY=1;entryDx=0;entryDy=0;" parent="1" source="KMH7AppHIwjlynywB1wn-1" target="jiuy7B6aaROlVbYT8yXl-5" edge="1">
          <mxGeometry relative="1" as="geometry" />
        </mxCell>
        <mxCell id="KMH7AppHIwjlynywB1wn-1" value="IcePasswordStatus" style="rounded=0;whiteSpace=wrap;html=1;fillColor=#dae8fc;strokeColor=#6c8ebf;" parent="1" vertex="1">
          <mxGeometry x="410" y="720" width="120" height="70" as="geometry" />
        </mxCell>
        <mxCell id="KMH7AppHIwjlynywB1wn-2" value="iceId" style="rounded=0;whiteSpace=wrap;html=1;fillColor=#f5f5f5;strokeColor=#666666;fontColor=#333333;" parent="1" vertex="1">
          <mxGeometry x="440" y="770" width="40" height="20" as="geometry" />
        </mxCell>
        <mxCell id="C1h8iQs_TRBgUqANPpUf-1" value="layerId" style="rounded=0;whiteSpace=wrap;html=1;fillColor=#d5e8d4;strokeColor=#82b366;" parent="1" vertex="1">
          <mxGeometry x="585" y="480" width="50" height="20" as="geometry" />
        </mxCell>
        <mxCell id="C1h8iQs_TRBgUqANPpUf-9" style="edgeStyle=orthogonalEdgeStyle;rounded=0;orthogonalLoop=1;jettySize=auto;html=1;exitX=0.5;exitY=1;exitDx=0;exitDy=0;entryX=0.5;entryY=0;entryDx=0;entryDy=0;dashed=1;" parent="1" source="C1h8iQs_TRBgUqANPpUf-6" target="C1h8iQs_TRBgUqANPpUf-7" edge="1">
          <mxGeometry relative="1" as="geometry" />
        </mxCell>
        <mxCell id="C1h8iQs_TRBgUqANPpUf-12" style="edgeStyle=orthogonalEdgeStyle;rounded=0;orthogonalLoop=1;jettySize=auto;html=1;exitX=0.5;exitY=0;exitDx=0;exitDy=0;endArrow=none;endFill=0;" parent="1" source="C1h8iQs_TRBgUqANPpUf-6" edge="1">
          <mxGeometry relative="1" as="geometry">
            <mxPoint x="600" y="530" as="targetPoint" />
          </mxGeometry>
        </mxCell>
        <mxCell id="C1h8iQs_TRBgUqANPpUf-6" value="KeystoreLayer" style="rounded=1;whiteSpace=wrap;html=1;" parent="1" vertex="1">
          <mxGeometry x="540" y="550" width="120" height="50" as="geometry" />
        </mxCell>
        <mxCell id="C1h8iQs_TRBgUqANPpUf-7" value="IcePassword" style="rounded=0;whiteSpace=wrap;html=1;fillColor=#dae8fc;strokeColor=#6c8ebf;" parent="1" vertex="1">
          <mxGeometry x="540" y="720" width="120" height="70" as="geometry" />
        </mxCell>
        <mxCell id="C1h8iQs_TRBgUqANPpUf-10" value="iceId" style="rounded=0;whiteSpace=wrap;html=1;fillColor=#f5f5f5;strokeColor=#666666;fontColor=#333333;" parent="1" vertex="1">
          <mxGeometry x="580" y="770" width="40" height="20" as="geometry" />
        </mxCell>
        <mxCell id="C1h8iQs_TRBgUqANPpUf-14" value="layerId" style="rounded=0;whiteSpace=wrap;html=1;fillColor=#f5f5f5;strokeColor=#666666;fontColor=#333333;" parent="1" vertex="1">
          <mxGeometry x="430" y="720" width="60" height="20" as="geometry" />
        </mxCell>
        <mxCell id="C1h8iQs_TRBgUqANPpUf-15" value="layerId" style="rounded=0;whiteSpace=wrap;html=1;fillColor=#f5f5f5;strokeColor=#666666;fontColor=#333333;" parent="1" vertex="1">
          <mxGeometry x="150" y="400" width="60" height="20" as="geometry" />
        </mxCell>
        <mxCell id="C1h8iQs_TRBgUqANPpUf-16" value="layerId" style="rounded=0;whiteSpace=wrap;html=1;fillColor=#f5f5f5;strokeColor=#666666;fontColor=#333333;" parent="1" vertex="1">
          <mxGeometry x="150" y="560" width="60" height="20" as="geometry" />
        </mxCell>
        <mxCell id="C1h8iQs_TRBgUqANPpUf-17" value="layerId" style="rounded=0;whiteSpace=wrap;html=1;fillColor=#f5f5f5;strokeColor=#666666;fontColor=#333333;" parent="1" vertex="1">
          <mxGeometry x="150" y="480" width="60" height="20" as="geometry" />
        </mxCell>
        <mxCell id="C1h8iQs_TRBgUqANPpUf-18" value="layerId" style="rounded=0;whiteSpace=wrap;html=1;fillColor=#f5f5f5;strokeColor=#666666;fontColor=#333333;" parent="1" vertex="1">
          <mxGeometry x="150" y="640" width="60" height="20" as="geometry" />
        </mxCell>
        <mxCell id="N_-d8kACcy34HXy9NwKo-1" value="Timer" style="rounded=0;whiteSpace=wrap;html=1;fillColor=#dae8fc;strokeColor=#6c8ebf;" parent="1" vertex="1">
          <mxGeometry x="800" y="720" width="120" height="70" as="geometry" />
        </mxCell>
        <mxCell id="N_-d8kACcy34HXy9NwKo-32" style="rounded=0;orthogonalLoop=1;jettySize=auto;html=1;exitX=1;exitY=0.5;exitDx=0;exitDy=0;entryX=0;entryY=0.25;entryDx=0;entryDy=0;" parent="1" source="N_-d8kACcy34HXy9NwKo-12" target="2eXZJzVbI_ONPsShpP8c-1" edge="1">
          <mxGeometry relative="1" as="geometry" />
        </mxCell>
        <mxCell id="jiuy7B6aaROlVbYT8yXl-21" value="&lt;br&gt;Run&lt;br&gt;&amp;nbsp;" style="rounded=0;whiteSpace=wrap;html=1;fillColor=#dae8fc;strokeColor=#6c8ebf;" parent="1" vertex="1">
          <mxGeometry x="320" y="130" width="120" height="70" as="geometry" />
        </mxCell>
        <mxCell id="jiuy7B6aaROlVbYT8yXl-73" value="runId" style="rounded=0;whiteSpace=wrap;html=1;fillColor=#d5e8d4;strokeColor=#82b366;" parent="1" vertex="1">
          <mxGeometry x="320" y="180" width="40" height="20" as="geometry" />
        </mxCell>
        <mxCell id="N_-d8kACcy34HXy9NwKo-11" value="siteId" style="rounded=0;whiteSpace=wrap;html=1;fillColor=#f5f5f5;strokeColor=#666666;fontColor=#333333;" parent="1" vertex="1">
          <mxGeometry x="620" y="320" width="50" height="20" as="geometry" />
        </mxCell>
        <mxCell id="N_-d8kACcy34HXy9NwKo-12" value="siteId" style="rounded=0;whiteSpace=wrap;html=1;fillColor=#f5f5f5;strokeColor=#666666;fontColor=#333333;" parent="1" vertex="1">
          <mxGeometry x="390" y="180" width="50" height="20" as="geometry" />
        </mxCell>
        <mxCell id="N_-d8kACcy34HXy9NwKo-13" value="siteId" style="rounded=0;whiteSpace=wrap;html=1;fillColor=#f5f5f5;strokeColor=#666666;fontColor=#333333;" parent="1" vertex="1">
          <mxGeometry x="760" y="320" width="60" height="20" as="geometry" />
        </mxCell>
        <mxCell id="N_-d8kACcy34HXy9NwKo-14" value="runId" style="rounded=0;whiteSpace=wrap;html=1;fillColor=#f5f5f5;strokeColor=#666666;fontColor=#333333;" parent="1" vertex="1">
          <mxGeometry x="280" y="70" width="40" height="20" as="geometry" />
        </mxCell>
        <mxCell id="jiuy7B6aaROlVbYT8yXl-36" value="User&lt;br&gt;&amp;nbsp;" style="rounded=0;whiteSpace=wrap;html=1;fillColor=#dae8fc;strokeColor=#6c8ebf;" parent="1" vertex="1">
          <mxGeometry x="80" y="130" width="120" height="70" as="geometry" />
        </mxCell>
        <mxCell id="jiuy7B6aaROlVbYT8yXl-74" value="userId" style="rounded=0;whiteSpace=wrap;html=1;fillColor=#d5e8d4;strokeColor=#82b366;" parent="1" vertex="1">
          <mxGeometry x="120" y="180" width="40" height="20" as="geometry" />
        </mxCell>
        <mxCell id="N_-d8kACcy34HXy9NwKo-21" value="userId" style="rounded=0;whiteSpace=wrap;html=1;fillColor=#f5f5f5;strokeColor=#666666;fontColor=#333333;" parent="1" vertex="1">
          <mxGeometry x="200" y="70" width="40" height="20" as="geometry" />
        </mxCell>
        <mxCell id="N_-d8kACcy34HXy9NwKo-25" value="siteId" style="rounded=0;whiteSpace=wrap;html=1;fillColor=#d5e8d4;strokeColor=#82b366;" parent="1" vertex="1">
          <mxGeometry x="730" y="260" width="60" height="20" as="geometry" />
        </mxCell>
        <mxCell id="N_-d8kACcy34HXy9NwKo-28" value="id" style="rounded=0;whiteSpace=wrap;html=1;fillColor=#d5e8d4;strokeColor=#82b366;" parent="1" vertex="1">
          <mxGeometry x="830" y="720" width="60" height="20" as="geometry" />
        </mxCell>
        <mxCell id="N_-d8kACcy34HXy9NwKo-30" value="siteId" style="rounded=0;whiteSpace=wrap;html=1;fillColor=#f5f5f5;strokeColor=#666666;fontColor=#333333;" parent="1" vertex="1">
          <mxGeometry x="860" y="770" width="60" height="20" as="geometry" />
        </mxCell>
        <mxCell id="N_-d8kACcy34HXy9NwKo-31" value="layerId" style="rounded=0;whiteSpace=wrap;html=1;fillColor=#f5f5f5;strokeColor=#666666;fontColor=#333333;" parent="1" vertex="1">
          <mxGeometry x="800" y="770" width="50" height="20" as="geometry" />
        </mxCell>
        <mxCell id="2eXZJzVbI_ONPsShpP8c-3" value="foreign key" style="rounded=0;whiteSpace=wrap;html=1;fillColor=#f5f5f5;strokeColor=#666666;fontColor=#333333;" vertex="1" parent="1">
          <mxGeometry x="1090" y="60" width="70" height="20" as="geometry" />
        </mxCell>
      </root>
    </mxGraphModel>
  </diagram>
</mxfile>
